<svg xmlns="http://www.w3.org/2000/svg" xmlns:xlink="http://www.w3.org/1999/xlink" viewBox="0 0 797 293"><defs><style>.cls-1{stroke:#d86252;stroke-width:5px;fill:url(#Безымянный_градиент_36);}.cls-1,.cls-2,.cls-3{stroke-miterlimit:10;}.cls-2{fill:#bf0015;opacity:0.5;}.cls-2,.cls-3{stroke:#fff;stroke-width:3px;}.cls-3{fill:#942500;opacity:0.39;}.cls-4{fill:#73001c;}</style><radialGradient id="Безымянный_градиент_36" cx="398.5" cy="146.5" r="510.32206" gradientTransform="matrix(0.99999, 0.00485, -0.00162, 0.33505, 0.24267, 95.48293)" gradientUnits="userSpaceOnUse"><stop offset="0" stop-color="#ffd4d8"/><stop offset="0.15439" stop-color="#ffd1d5"/><stop offset="0.26762" stop-color="#fec9cc"/><stop offset="0.36775" stop-color="#fcbbbc"/><stop offset="0.46027" stop-color="#faa7a5"/><stop offset="0.54757" stop-color="#f78d88"/><stop offset="0.63103" stop-color="#f36d64"/><stop offset="0.71141" stop-color="#ef473a"/><stop offset="0.78737" stop-color="#ea1c0a"/><stop offset="0.80168" stop-color="#e91300"/></radialGradient></defs><g id="Слой_2" data-name="Слой 2"><g id="кнопки_для_меню" data-name="кнопки для меню"><g id="Кнопка_Выход_-_не_нажат" data-name="Кнопка &quot;Выход&quot; - не нажат"><rect class="cls-1" x="2.5" y="2.5" width="792" height="288" rx="117.89362"/><rect class="cls-2" x="38.5" y="27.71253" width="720" height="235.78747" rx="93.95756"/><rect class="cls-3" x="65.5" y="47.5" width="666" height="198" rx="73.14894"/><path class="cls-4" d="M292.39844,118.05762h14.76562a38.97686,38.97686,0,0,1,10.59961,1.08886,10.512,10.512,0,0,1,5.81836,4.40918q2.21484,3.3208,2.21485,10.69825,0,4.98926-1.56446,6.95605-1.56445,1.96728-6.16992,3.02149,5.13282,1.16162,6.96094,3.85156,1.82739,2.69091,1.82812,8.249v5.27637q0,5.77-1.31836,8.54785a7.10617,7.10617,0,0,1-4.20117,3.79883q-2.8828,1.021-11.8125,1.02051H292.39844Zm14.80078,9.73828v12.65625c.63281-.02246,1.125-.03516,1.47656-.03516q2.1797,0,2.77734-1.07226t.59766-6.13477a9.92339,9.92339,0,0,0-.49219-3.74414,2.36442,2.36442,0,0,0-1.2832-1.35352A11.40811,11.40811,0,0,0,307.19922,127.7959Zm0,21.51562V165.2373q3.12891-.10547,3.99023-.98437.86133-.87744.86133-4.32422v-5.30859q0-3.65625-.77344-4.42969Q310.50391,149.41846,307.19922,149.31152Z"/><path class="cls-4" d="M364.78516,161.65137q0,6.3999-1.49414,9.17578a6.64847,6.64847,0,0,1-4.69336,3.46289,55.72281,55.72281,0,0,1-10.44141.68555h-16.418V128.32324h14.09766V143.8623h2.32031a46.58509,46.58509,0,0,1,10.125.8086,7.41645,7.41645,0,0,1,4.92187,3.55078q1.582,2.74218,1.582,8.68359Zm-14.13282-1.72266v-1.86328q0-3.61963-.7207-4.39453-.72071-.772-4.0957-.87891v12.375a7.03358,7.03358,0,0,0,3.81445-.7207Q350.65235,163.72706,350.65234,159.92871ZM383.207,174.97559H369.10938V128.32324H383.207Z"/><path class="cls-4" d="M416.35938,128.32324l-5.66016,22.28906,6.85547,24.36329H403.74707q-2.05663-9.23-3.12012-15.89063-1.4187,8.31592-3.085,15.89063H385.668l6.11719-24.36329L385.668,128.32324h11.874q2.87256,14.30421,3.085,16.24219,2.05665-11.94286,3.12012-16.24219Z"/><path class="cls-4" d="M451.55078,144.70605v11.42579a48.20325,48.20325,0,0,1-.63281,9.22851,12.95411,12.95411,0,0,1-2.707,5.48438,12.22317,12.22317,0,0,1-5.32617,3.76172,21.29864,21.29864,0,0,1-7.47071,1.21289,26.679,26.679,0,0,1-7.98047-1.03711,10.86758,10.86758,0,0,1-5.08007-3.12891,12.339,12.339,0,0,1-2.584-5.0625,38.06276,38.06276,0,0,1-.77344-8.91211V145.72559a29.24622,29.24622,0,0,1,1.40625-10.16016,11.67931,11.67931,0,0,1,5.0625-5.87109,17.81929,17.81929,0,0,1,9.35157-2.21485,21.355,21.355,0,0,1,8.209,1.42383,12.86741,12.86741,0,0,1,7.83984,8.41992A29.28483,29.28483,0,0,1,451.55078,144.70605Zm-14.20312-3.51562a15.50062,15.50062,0,0,0-.38672-4.51758,1.59656,1.59656,0,0,0-1.65235-.93164,1.66593,1.66593,0,0,0-1.6875.93164,14.26337,14.26337,0,0,0-.42187,4.51758V162.249a13.63943,13.63943,0,0,0,.42187,4.30664,1.9202,1.9202,0,0,0,3.32227.08789,11.925,11.925,0,0,0,.4043-3.9375Z"/><path class="cls-4" d="M497.53516,183.97559H488.043v-9H464.13672v9h-9.49219V163.83105H457.668q2.707-4.18359,4.44726-12.99023a108.56423,108.56423,0,0,0,1.74024-20.79492v-1.72266h30.65625v35.4375h3.02344Zm-17.1211-20.21485V138.835h-3.6914v.49219a69.97629,69.97629,0,0,1-4.21875,24.43359Z"/></g></g></g></svg>