<svg xmlns="http://www.w3.org/2000/svg" xmlns:xlink="http://www.w3.org/1999/xlink" viewBox="0 0 797 293"><defs><style>.cls-1{stroke:#8aff90;stroke-width:5px;fill:url(#Безымянный_градиент_19);}.cls-1,.cls-2,.cls-3{stroke-miterlimit:10;}.cls-2{fill:#74ff9f;}.cls-2,.cls-3{stroke:#fff;stroke-width:3px;}.cls-2,.cls-3,.cls-4{opacity:0.35;}.cls-3{fill:#00ff07;}.cls-5{fill:#0f621b;}</style><radialGradient id="Безымянный_градиент_19" cx="398.5" cy="146.5" r="510.32206" gradientTransform="matrix(0.99999, 0.00485, -0.00162, 0.33505, 0.24267, 95.48293)" gradientUnits="userSpaceOnUse"><stop offset="0" stop-color="#fff"/><stop offset="0.13583" stop-color="#fcfefc"/><stop offset="0.2484" stop-color="#f1fbf4"/><stop offset="0.35272" stop-color="#e0f6e6"/><stop offset="0.45205" stop-color="#c8eed2"/><stop offset="0.54792" stop-color="#a8e4b8"/><stop offset="0.64106" stop-color="#82d898"/><stop offset="0.73038" stop-color="#55cb73"/><stop offset="0.79609" stop-color="#2fbf54"/></radialGradient></defs><g id="Слой_2" data-name="Слой 2"><g id="кнопки_для_меню" data-name="кнопки для меню"><g id="Кнопка_Начать_Игру_-_нажат" data-name="Кнопка &quot;Начать Игру&quot; - нажат"><rect class="cls-1" x="2.5" y="2.5" width="792" height="288" rx="117.89362"/><rect class="cls-2" x="38.5" y="27.71253" width="720" height="235.78747" rx="93.95756"/><rect class="cls-3" x="65.5" y="47.5" width="666" height="198" rx="73.14894"/><g class="cls-4"><path class="cls-5" d="M248.82227,118.05762v56.918H234.02148V151.06934H229.5918v23.90625H214.791v-56.918H229.5918v20.35547h4.42968V118.05762Z"/><path class="cls-5" d="M267.0332,146.39355H253.709v-3.1289A22.0706,22.0706,0,0,1,254.957,134.915a11.58112,11.58112,0,0,1,5.00977-5.18555,18.85882,18.85882,0,0,1,9.77343-2.25q7.2063,0,10.86329,2.54883a9.93393,9.93393,0,0,1,4.39453,6.25781q.73827,3.70972.73828,15.27539v23.41407H271.91992v-4.15723a8.66432,8.66432,0,0,1-8.26172,5.001,12.00238,12.00238,0,0,1-6.83789-2.0918q-3.11133-2.09106-3.11133-9.1582v-3.832q0-5.23827,1.65235-7.13671t8.1914-4.42969q6.99537-2.74219,7.48829-3.69141a9.80833,9.80833,0,0,0,.49218-3.86719,13.032,13.032,0,0,0-.54492-4.76367,1.87069,1.87069,0,0,0-1.81055-1.10742q-1.44213,0-1.793.93164a18.927,18.927,0,0,0-.35157,4.834Zm4.5,6.39844q-3.41014,2.49683-3.95508,4.1836a16.59757,16.59757,0,0,0-.54492,4.85156,14.13362,14.13362,0,0,0,.47461,4.67578,1.85562,1.85562,0,0,0,1.88086,1.05469,1.74086,1.74086,0,0,0,1.74024-.82617,13.35761,13.35761,0,0,0,.40429-4.3418Z"/><path class="cls-5" d="M323.002,174.97559H308.834v-12.832q-2.67187,2.53125-8.50781,2.53125a12.99226,12.99226,0,0,1-6.53906-1.4414,6.05468,6.05468,0,0,1-3.05859-4.1836,49.14027,49.14027,0,0,1-.5625-8.85937V128.32324h14.20312V150.8584a23.11492,23.11492,0,0,0,.35156,5.02734,1.70556,1.70556,0,0,0,1.86328,1.30078,1.76541,1.76541,0,0,0,1.75782-1.16015,14.22819,14.22819,0,0,0,.49218-4.67578V128.32324h14.168Z"/><path class="cls-5" d="M340.4043,146.39355H327.08008v-3.1289a22.07062,22.07062,0,0,1,1.248-8.34961,11.58117,11.58117,0,0,1,5.00977-5.18555,18.85886,18.85886,0,0,1,9.77344-2.25q7.2063,0,10.86328,2.54883a9.93393,9.93393,0,0,1,4.39453,6.25781q.73829,3.70972.73828,15.27539v23.41407H345.291v-4.15723a8.66435,8.66435,0,0,1-8.26172,5.001,12.00234,12.00234,0,0,1-6.83789-2.0918q-3.11133-2.09106-3.11133-9.1582v-3.832q0-5.23827,1.65234-7.13671t8.19141-4.42969q6.99535-2.74219,7.48828-3.69141a9.80827,9.80827,0,0,0,.49219-3.86719,13.032,13.032,0,0,0-.54492-4.76367,1.87069,1.87069,0,0,0-1.81055-1.10742q-1.44215,0-1.793.93164a18.92717,18.92717,0,0,0-.35156,4.834Zm4.5,6.39844q-3.41016,2.49683-3.95508,4.1836a16.59722,16.59722,0,0,0-.54492,4.85156,14.13334,14.13334,0,0,0,.47461,4.67578,1.85561,1.85561,0,0,0,1.88086,1.05469,1.74086,1.74086,0,0,0,1.74023-.82617,13.35749,13.35749,0,0,0,.4043-4.3418Z"/><path class="cls-5" d="M392.11914,128.32324v9.77344h-8.12109v36.87891h-14.168V138.09668h-8.15625v-9.77344Z"/><path class="cls-5" d="M428.01367,161.65137q0,6.39917-1.49414,9.17578a6.64843,6.64843,0,0,1-4.69336,3.46289,55.72268,55.72268,0,0,1-10.4414.68555h-16.418V128.32324h14.09765V143.8623h2.32032a46.58522,46.58522,0,0,1,10.125.8086,7.41494,7.41494,0,0,1,4.92187,3.55078q1.582,2.74218,1.582,8.68359Zm-14.13281-1.72266v-1.86328q0-3.62035-.7207-4.39453-.72071-.77271-4.09571-.87891v12.375a7.03362,7.03362,0,0,0,3.81446-.7207Q413.88087,163.72632,413.88086,159.92871Z"/><path class="cls-5" d="M478.709,174.97559H466.334V149.06543l-7.69921,25.91016H445.66211V118.02246h12.375v25.69922l8.29687-25.69922h12.375Z"/><path class="cls-5" d="M484.19336,174.97559V128.32324h22.32422V136.374h-8.15625v38.60157Z"/><path class="cls-5" d="M523.49805,128.32324l-.2461,4.12207a13.18893,13.18893,0,0,1,4.1836-3.7334,10.35147,10.35147,0,0,1,4.99218-1.23242,9.36591,9.36591,0,0,1,5.71289,1.77539,7.44274,7.44274,0,0,1,3.00586,4.09571,35.70578,35.70578,0,0,1,.59766,7.875v19.65234a37.58024,37.58024,0,0,1-.75586,9.05273,7.52292,7.52292,0,0,1-3.09375,4.28907,9.75219,9.75219,0,0,1-5.64258,1.59961,10.01071,10.01071,0,0,1-4.88672-1.23243,13.28972,13.28972,0,0,1-4.11328-3.66308v10.69629H509.04883V128.32324Zm4.043,13.57031a23.74406,23.74406,0,0,0-.31641-5.23828q-.31641-.91406-1.75781-.91406a1.71937,1.71937,0,0,0-1.81055,1.05469,18.85069,18.85069,0,0,0-.4043,5.09765v19.33594a19.08863,19.08863,0,0,0,.42188,5.27344,1.75282,1.75282,0,0,0,1.82812,1.05469q1.37111,0,1.70508-.9668a19.24221,19.24221,0,0,0,.334-4.69336Z"/><path class="cls-5" d="M576.15332,128.32324l-4.05859,33.751q-.96314,8.01489-1.61328,10.93262a11.69533,11.69533,0,0,1-2.16211,4.8164,8.72977,8.72977,0,0,1-4.2002,2.79492,29.65065,29.65065,0,0,1-8.59473.89649h-8.6123v-7.45313a16.40648,16.40648,0,0,0,4.26123-.334,1.41191,1.41191,0,0,0,.95068-1.49414q0-.56176-.87988-4.88672l-7.77734-39.02344h12.89355l4.667,31.5,2.27637-31.5Z"/></g></g></g></g></svg>